<svg width="58" height="58" viewBox="0 0 58 58" fill="none" xmlns="http://www.w3.org/2000/svg">
<path d="M41.5663 11.5996H16.4329C13.7647 11.6029 11.6029 13.7647 11.5996 16.4329V41.5663C11.6029 44.2345 13.7647 46.3963 16.4329 46.3996H41.5663C44.2345 46.3963 46.3963 44.2345 46.3996 41.5663V16.4329C46.3963 13.7647 44.2345 11.6029 41.5663 11.5996ZM44.4663 41.5663C44.4663 43.1678 43.1678 44.4663 41.5663 44.4663H16.4329C14.8314 44.4663 13.5329 43.1678 13.5329 41.5663V16.4329C13.5329 14.8314 14.8314 13.5329 16.4329 13.5329H41.5663C43.1678 13.5329 44.4663 14.8314 44.4663 16.4329V41.5663Z" fill="#70250B"/>
<path d="M28.9997 19.334C23.6608 19.334 19.333 23.6618 19.333 29.0007C19.333 34.3395 23.6608 38.6673 28.9997 38.6673C34.3385 38.6673 38.6663 34.3395 38.6663 29.0007C38.6607 23.6642 34.3362 19.3396 28.9997 19.334ZM28.9997 36.734C24.7285 36.734 21.2663 33.2718 21.2663 29.0007C21.2663 24.7295 24.7285 21.2673 28.9997 21.2673C33.2709 21.2673 36.733 24.7295 36.733 29.0007C36.7283 33.2695 33.2685 36.7293 28.9997 36.734Z" fill="#70250B"/>
<path d="M39.6334 15.4668C38.0319 15.4668 36.7334 16.7653 36.7334 18.3668C36.7334 19.9683 38.0319 21.2668 39.6334 21.2668C41.2349 21.2668 42.5334 19.9683 42.5334 18.3668C42.5334 16.7653 41.2349 15.4668 39.6334 15.4668ZM39.6334 19.3335C39.0996 19.3335 38.6667 18.9006 38.6667 18.3668C38.6667 17.833 39.0996 17.4001 39.6334 17.4001C40.1672 17.4001 40.6001 17.833 40.6001 18.3668C40.6001 18.9006 40.1672 19.3335 39.6334 19.3335Z" fill="#70250B"/>
</svg>
