<?xml version="1.0" encoding="UTF-8"?>
<!DOCTYPE svg PUBLIC "-//W3C//DTD SVG 1.1//EN" "http://www.w3.org/Graphics/SVG/1.1/DTD/svg11.dtd">
<!-- Creator: CorelDRAW 2017 -->
<svg xmlns="http://www.w3.org/2000/svg" xml:space="preserve" width="700px" height="700px" version="1.1" shape-rendering="geometricPrecision" text-rendering="geometricPrecision" image-rendering="optimizeQuality" fill-rule="evenodd" clip-rule="evenodd"
viewBox="0 0 700 700"
 xmlns:xlink="http://www.w3.org/1999/xlink">
 <g id="Слой_x0020_1">
  <metadata id="CorelCorpID_0Corel-Layer"/>
  <path fill="#FFFFFF" d="M148.755 586.58c-2.506,-30.68 25.092,-56.441 43.271,-12.945 20.186,71.072 42.426,163.76 70.021,15.77 0.658,-21.391 -0.801,-42.732 10.516,-59.305 19.413,-28.433 66.195,-24.994 100.901,-10.404 42.936,18.05 89.418,51.097 116.22,85.821 14.911,19.32 29.571,44.787 44.048,61.761l3.248 3.222c40.2,-19.374 17.272,-150.224 7.607,-182.128 -6.757,-22.303 -16.009,-45.899 -26.147,-63.993 -11.588,-20.682 -18.693,-28.423 -32.607,-45.186 -0.427,-0.513 -1.047,-1.228 -1.448,-1.737l-3.95 -5.785c28.183,-45.64 80.029,-38.567 129.603,-66.807 96.984,-55.246 105.398,-186.245 -5.19,-234.219 -61.129,-26.517 -110.812,-2.001 -159.023,16.886 0.621,0.648 1.654,0.61 2.019,1.782l14.475 8.991c15.432,8.103 32.207,19.968 43.506,33.988 15.664,19.434 25.682,51.119 11.081,79.333 -28.116,54.333 -76.281,36.506 -82.636,125.166 -57.01,-28.923 -79.145,-38.301 -156.348,-36.004l-9.042 2.376 4.141 -6.707c15.898,-13.494 62.988,-30.456 86.644,-39.927 37.474,-15.004 57.28,-29.216 48.593,-80.074 -11.306,-5.78 -32.742,-10.562 -47.257,-14.434 -31.022,-8.278 -20.673,-2.38 -36.819,-25.182 -27.285,-38.531 -63.276,-23.518 -84.901,-42.212l-1.992 -58.009c-51.729,5.803 -113.776,69.805 -134.073,97.154 -97.165,130.915 -110.524,302.321 -24.733,444.487 78.942,119.837 58.17,103.828 70.272,8.321zm330.946 -497.482c23.599,15.734 51.322,35.215 53.928,66.538 2.055,24.691 1.159,44.261 -5.988,67.81 -0.563,1.856 21.821,-20.233 22.694,-21.106 18.484,-18.484 -15.061,46.693 0.961,37.212 9.257,-5.477 22.475,-9.857 30.285,-17.666 26.438,-26.438 -1.373,24.802 24.607,8.202 5.857,-3.741 8.663,-10.176 11.357,-16.405 0.486,-1.124 9.465,15.333 9.465,22.083 0,17.387 17.57,-14.359 18.928,-18.297 1.633,-4.74 1.258,-8.947 3.155,-13.881 1.367,-3.555 1.564,-8.301 2.523,-11.988 0.517,-1.986 7.238,8.077 8.203,9.464 14.957,21.53 13.575,-19.66 11.988,-33.44 -3.133,-27.172 -47.108,-65.89 -72.863,-73.167 -40.45,-11.429 -78.243,-7.252 -119.243,-5.359zm-288.223 115.228l-4.882 2.03c15.145,19.694 32.008,28.467 48.118,45.867 -66.745,-6.851 -109.454,9.251 -136.195,47.885 -29.704,42.912 -39.642,100.105 -25.511,156.694l10.222 -16.457c15.219,40.799 37.601,56.152 86.412,61.032 -3.085,-24.522 -28.933,-61.877 -21.442,-114.088 6.107,-42.566 26.392,-67.881 51.981,-85.031 28.156,-18.872 56.702,-31.46 92.257,-44.55 38.635,-14.221 78.522,-12.631 85.418,-53.397 -29.908,0.986 -59.81,6.718 -92.681,6.877 -33.973,0.164 -63.899,-6.251 -93.697,-6.862zm140.342 441.17c47.36,10.144 66.437,-56.636 66.552,-93.519 -14.082,-15.352 -46.684,-26.783 -74.821,-26.924 33.737,81.489 -4.047,92.294 8.269,120.443zm-145.224 -439.14l4.882 -2.03 -9.303 -4.685 4.421 6.715zm91.326 94.431c-6.125,-0.638 -4.901,1.19 -4.901,-4.331l-4.141 6.707 9.042 -2.376z"/>
 </g>
</svg>
