<svg width="45" height="45" viewBox="0 0 45 45" fill="none" xmlns="http://www.w3.org/2000/svg">
<path d="M42.75 5.25H2.25C1.0074 5.25 0 6.25731 0 7.5V37.5C0 38.7426 1.00731 39.75 2.25 39.75H42.75C43.9926 39.75 45 38.7427 45 37.5V7.5C45 6.2574 43.9927 5.25 42.75 5.25ZM43.5 37.5001C43.5 37.9143 43.1642 38.25 42.75 38.25H2.25C1.83577 38.25 1.50003 37.9143 1.50003 37.5001V7.5C1.50003 7.08577 1.83577 6.75003 2.25 6.75003H42.75C43.1642 6.75003 43.5 7.08577 43.5 7.5V37.5001Z" fill="#FFFFFF"/>
<path d="M41.3153 8.2529C41.1171 8.23558 40.9202 8.29772 40.7678 8.42569L23.4653 22.9606C22.9072 23.4297 22.0928 23.4297 21.5347 22.9606L4.23233 8.4256C4.0271 8.25334 3.7455 8.20359 3.49369 8.29517C3.24189 8.38675 3.05802 8.60578 3.01144 8.86971C2.96485 9.13365 3.06259 9.40233 3.26781 9.5746L20.5703 24.1088C21.6855 25.0478 23.3146 25.0478 24.4299 24.1088L41.7323 9.57468C41.8847 9.4468 41.9799 9.26364 41.9973 9.06544C42.0146 8.86725 41.9524 8.67029 41.8245 8.51797C41.6967 8.36548 41.5135 8.27021 41.3153 8.2529Z" fill="#FFFFFF"/>
<path d="M14.425 24.0063C14.1594 23.9471 13.8828 24.0362 13.7017 24.2392L3.20167 35.4892C3.01166 35.6838 2.94187 35.9661 3.01939 36.2268C3.09691 36.4876 3.30952 36.6858 3.57495 36.7451C3.84046 36.8043 4.11714 36.7152 4.2982 36.5122L14.7982 25.2622C14.9882 25.0676 15.058 24.7853 14.9805 24.5246C14.903 24.2639 14.6905 24.0655 14.425 24.0063Z" fill="#FFFFFF"/>
<path d="M31.2982 24.2392C31.1172 24.0362 30.8405 23.9471 30.5749 24.0063C30.3094 24.0655 30.0969 24.2639 30.0194 24.5246C29.9419 24.7854 30.0117 25.0676 30.2017 25.2622L40.7017 36.5122C40.9865 36.8038 41.4519 36.8147 41.75 36.5366C42.048 36.2585 42.0695 35.7934 41.7982 35.4891L31.2982 24.2392Z" fill="#FFFFFF"/>
</svg>
